<svg width="12.000000" height="17.000000" viewBox="0 0 12 17" fill="none" xmlns="http://www.w3.org/2000/svg" xmlns:xlink="http://www.w3.org/1999/xlink">
	<desc>
			Created with Pixso.
	</desc>
	<defs/>
	<path id="Vector" d="M10 7.22L10 4.53C10.01 3.31 9.52 2.14 8.65 1.29C7.81 0.45 6.71 0 5.55 0C5.53 0 5.51 0 5.49 0C3.01 0 0.99 2.03 0.99 4.53L0.99 7.22C0.05 7.34 -0.63 8.12 -0.63 9.07L-0.63 15.12C-0.63 16.15 0.19 17 1.22 17L9.77 17C10.8 17 11.62 16.15 11.62 15.12L11.62 9.07C11.62 8.13 10.94 7.34 10 7.22ZM1.71 4.53L1.71 4.53C1.71 2.43 3.41 0.7 5.49 0.7L5.5 0.7C6.49 0.7 7.44 1.09 8.14 1.79C8.87 2.52 9.28 3.51 9.27 4.53L9.27 7.23L8.48 7.23L8.48 4.53C8.49 3.71 8.16 2.93 7.58 2.35C7.04 1.8 6.29 1.49 5.52 1.49L5.5 1.49C3.84 1.49 2.5 2.86 2.5 4.53L2.5 7.23L1.71 7.23L1.71 4.53ZM7.76 4.53L7.76 7.23L3.22 7.23L3.22 4.53C3.22 3.26 4.24 2.22 5.5 2.22L5.52 2.22C6.11 2.22 6.67 2.45 7.08 2.87C7.52 3.31 7.77 3.91 7.76 4.53ZM10.94 15.13C10.94 15.76 10.42 16.27 9.79 16.27L1.23 16.27C0.6 16.27 0.09 15.76 0.09 15.13L0.09 9.09C0.09 8.46 0.6 7.95 1.23 7.95L9.79 7.95C10.42 7.95 10.94 8.46 10.94 9.09L10.94 15.13Z" fill="#000000" fill-opacity="1.000000" fill-rule="nonzero"/>
</svg>
